<?xml version="1.0" standalone="no"?>
<!DOCTYPE svg PUBLIC "-//W3C//DTD SVG 20010904//EN"
 "http://www.w3.org/TR/2001/REC-SVG-20010904/DTD/svg10.dtd">
<svg version="1.0" xmlns="http://www.w3.org/2000/svg"
 width="260.000000pt" height="260.000000pt" viewBox="0 0 260.000000 260.000000"
 preserveAspectRatio="xMidYMid meet">
<metadata>
Created by potrace 1.11, written by Peter Selinger 2001-2013
</metadata>
<g transform="translate(0.000000,260.000000) scale(0.100000,-0.100000)"
fill="#000000" stroke="none">
<path d="M678 2400 c-178 -54 -314 -365 -205 -468 68 -64 194 -9 279 122 90
140 94 297 8 341 -32 17 -42 17 -82 5z"/>
<path d="M1854 2396 c-18 -8 -37 -28 -47 -49 -70 -147 100 -438 258 -440 96
-2 133 81 101 231 -9 40 -66 138 -104 177 -75 77 -149 106 -208 81z"/>
<path d="M810 1885 c-59 -16 -67 -19 -150 -60 -157 -75 -378 -296 -439 -437
-18 -44 -24 -90 -22 -185 l1 -43 33 19 c37 21 402 231 654 377 l173 99 0 87
c0 82 -2 90 -28 119 -25 28 -34 32 -98 35 -42 2 -91 -2 -124 -11z"/>
<path d="M1615 1887 c-51 -23 -57 -39 -59 -139 l-1 -92 75 -44 c41 -25 90 -53
108 -63 17 -11 47 -27 65 -38 17 -10 91 -52 162 -93 72 -41 191 -110 265 -153
74 -43 144 -84 155 -91 11 -8 22 -14 25 -14 11 0 4 167 -9 205 -47 137 -276
376 -441 460 -119 60 -284 90 -345 62z"/>
<path d="M855 1384 c-236 -135 -455 -259 -485 -276 -30 -17 -59 -34 -65 -38
-5 -4 -35 -21 -65 -37 -30 -17 -94 -53 -142 -80 -97 -55 -96 -49 -3 -98 22
-12 63 -34 90 -50 72 -40 230 -127 300 -165 33 -18 80 -44 105 -58 25 -14 70
-38 100 -55 30 -16 81 -45 113 -63 32 -19 59 -34 61 -34 2 0 72 -38 156 -85
84 -47 154 -85 156 -85 2 0 26 -14 54 -30 28 -17 55 -30 61 -30 6 0 76 37 157
81 81 45 176 98 212 117 36 19 81 44 100 55 47 27 298 165 385 212 39 21 84
46 100 55 17 10 57 32 90 50 137 75 236 132 233 135 -2 1 -151 87 -333 190
-181 104 -345 196 -362 206 -18 11 -48 27 -65 37 -18 11 -136 78 -263 150
-126 72 -237 133 -245 136 -8 3 -204 -103 -445 -240z m888 -192 c4 -6 6 -16 3
-20 -2 -4 -7 -70 -11 -147 -4 -77 -9 -142 -11 -144 -2 -2 -35 15 -73 38 -38
22 -76 41 -84 41 -9 0 -35 -8 -59 -18 -38 -17 -125 -41 -168 -48 -188 -29
-312 -23 -482 20 -152 39 -156 44 -40 44 111 1 236 21 327 52 62 21 185 81
185 90 0 5 -37 28 -102 62 -21 11 -38 23 -38 27 0 3 113 7 252 9 138 1 253 4
255 6 8 8 38 0 46 -12z"/>
</g>
</svg>
